<?xml version="1.0" encoding="iso-8859-1"?>
<!-- Uploaded to: SVG Repo, www.svgrepo.com, Generator: SVG Repo Mixer Tools -->
<svg height="800px" width="800px" version="1.1" id="Layer_1" xmlns="http://www.w3.org/2000/svg"
    viewBox="0 0 511.999 511.999" xml:space="preserve">
<path style="fill:#BDBCBC;" d="M152.851,36.877v116.509c0,4.427-3.589,8.017-8.017,8.017H59.323c-4.427,0-8.017-3.589-8.017-8.017
	V36.877H152.851z"/>
<path style="fill:#A7A6A6;" d="M80.701,36.877v124.526H59.323c-4.427,0-8.017-3.589-8.017-8.017V36.877H80.701z"/>
<path style="fill:#E9E9E9;" d="M161.937,0H42.221c-4.427,0-8.017,3.589-8.017,8.017v34.205c0,4.427,3.589,8.017,8.017,8.017h119.716
	c4.427,0,8.017-3.589,8.017-8.017V8.017C169.954,3.59,166.364,0,161.937,0z"/>
<path style="fill:#6DDAE1;" d="M508.827,189.755L260.845,1.63c-2.865-2.173-6.826-2.173-9.689,0L3.172,189.755
	c-2.743,2.08-3.851,5.68-2.753,8.942c1.098,3.263,4.156,5.461,7.598,5.461h39.015v299.824c0,4.427,3.589,8.017,8.017,8.017h401.903
	c4.427,0,8.017-3.589,8.017-8.017V204.158h39.015c3.443,0,6.501-2.198,7.598-5.461C512.679,195.435,511.57,191.835,508.827,189.755z
	"/>
<path style="fill:#4FC4D4;" d="M3.172,189.755c-2.743,2.08-3.851,5.68-2.753,8.942c1.098,3.263,4.156,5.461,7.598,5.461h39.015
	v299.824c0,4.427,3.589,8.017,8.017,8.017h25.653v-381.06L3.172,189.755z"/>
<path style="fill:#E9E9E9;" d="M353.803,226.071c0-53.929-43.875-97.804-97.804-97.804s-97.804,43.875-97.804,97.804v55.582h41.687
	v-55.582c0-30.942,25.173-56.117,56.117-56.117c30.942,0,56.117,25.175,56.117,56.117v55.582h41.687V226.071z"/>
<path style="fill:#FF8C78;" d="M359.682,273.636H152.317c-13.262,0-24.05,10.789-24.05,24.05v163.54
	c0,4.428,3.589,8.017,8.017,8.017h239.432c4.428,0,8.017-3.588,8.017-8.017v-163.54
	C383.732,284.426,372.944,273.636,359.682,273.636z"/>
<path style="fill:#DF7A6E;" d="M152.317,273.636c-13.262,0-24.05,10.789-24.05,24.05v163.54c0,4.428,3.589,8.017,8.017,8.017h25.653
	V273.636H152.317z"/>
<path style="fill:#918F90;" d="M255.999,307.841c23.28,0,42.221,18.941,42.221,42.221c0,13.411-6.45,26.017-17.102,33.924v27.002
	c0,13.261-10.788,24.05-24.05,24.05h-2.138c-13.261,0-24.05-10.789-24.05-24.05v-27.002c-10.653-7.907-17.102-20.513-17.102-33.924
	C213.778,326.782,232.719,307.841,255.999,307.841z"/>
<path style="fill:#7B7979;" d="M255.999,307.841c3.024,0,5.973,0.326,8.818,0.933c-19.062,4.067-33.403,21.031-33.403,41.288
	c0,13.411,6.45,26.018,17.102,33.924v27.002c0,10.55,6.831,19.529,16.301,22.762c-2.434,0.831-5.039,1.288-7.749,1.288h-2.138
	c-13.261,0-24.05-10.789-24.05-24.05v-27.002c-10.653-7.907-17.102-20.513-17.102-33.924
	C213.778,326.782,232.719,307.841,255.999,307.841z"/>
</svg>